<svg version="1.2" xmlns="http://www.w3.org/2000/svg" viewBox="0 0 91 52" width="91" height="52"><style>.a{fill:#d83550}</style><path fill-rule="evenodd" class="a" d="m91 42.9c0 2.3-1 4.4-2.5 6-1.6 1.5-3.7 2.5-6.1 2.5h-55.6c-0.9 0-1.6-0.7-1.6-1.6 0-0.9 0.7-1.6 1.6-1.6h55.6c0.9 0 1.8-0.3 2.6-0.7l-21.5-21.4-7.8 6.8c-0.3 0.3-0.7 0.4-1 0.4-0.3 0-0.7-0.1-1-0.4l-31.4-27.1c-0.6 0.8-0.9 1.8-0.9 2.9v8.9c0 0.9-0.7 1.6-1.6 1.6-0.9 0-1.6-0.7-1.6-1.6v-8.9c0-4.7 3.9-8.6 8.6-8.6h55.6c4.7 0 8.6 3.9 8.6 8.6zm-28.6-20c0.1 0 0.1-0.1 0.1-0.1 0.1 0 0.1-0.1 0.2-0.1l22-19c-0.7-0.3-1.5-0.5-2.3-0.5h-55.6c-0.8 0-1.6 0.2-2.3 0.5l30.1 25.9zm3.5 1.1l21.3 21.3c0.4-0.8 0.7-1.7 0.7-2.6v-34.1c0-1-0.4-2-0.9-2.9z"/><path class="a" d="m45.7 42.2c0-0.9-0.7-1.6-1.6-1.6h-24.3c-0.9 0-1.6 0.7-1.6 1.6 0 0.9 0.7 1.6 1.6 1.6h24.4c0.8-0.1 1.5-0.8 1.5-1.6z"/><path class="a" d="m14.7 40.6h-1.7c-0.9 0-1.6 0.7-1.6 1.6 0 0.9 0.7 1.6 1.6 1.6h1.7c0.9 0 1.6-0.7 1.6-1.6-0.1-0.9-0.8-1.6-1.6-1.6z"/><path class="a" d="m28.7 35.8c0-0.9-0.7-1.6-1.6-1.6h-17.8c-0.9 0-1.6 0.7-1.6 1.6 0 0.9 0.7 1.6 1.6 1.6h17.8c0.9 0 1.6-0.7 1.6-1.6z"/><path class="a" d="m4.2 34.3h-1.6c-0.9 0-1.6 0.7-1.6 1.6 0 0.9 0.7 1.6 1.6 1.6h1.7c0.9 0 1.6-0.7 1.6-1.6-0.1-1-0.8-1.6-1.7-1.6z"/><path class="a" d="m34.4 31c0.9 0 1.6-0.7 1.6-1.6 0-0.9-0.7-1.6-1.6-1.6h-14.6c-0.9 0-1.6 0.7-1.6 1.6 0 0.9 0.7 1.6 1.6 1.6z"/><path class="a" d="m13 31h1.7c0.9 0 1.6-0.7 1.6-1.6 0-0.9-0.7-1.6-1.6-1.6h-1.7c-0.9 0-1.6 0.7-1.6 1.6 0.1 0.9 0.8 1.6 1.6 1.6z"/></svg>