<svg version="1.2" xmlns="http://www.w3.org/2000/svg" viewBox="0 0 157 142" width="157" height="142"><style>.a{fill:#d73550}</style><path fill-rule="evenodd" class="a" d="m19.4 54.3c-1.2-0.6-2.2-1.6-2.7-2.9l-15.1-39.2c-1.7-4.4 0.5-9.3 4.8-11 4.4-1.6 9.3 0.5 11 4.9l15.1 39.2c0.8 2 0.2 4.1-1.2 5.5l5.6 14.4 13.8-5.4c3.5-1.3 7.4 0.4 8.8 3.9l11 28.6c1.9 5 2.8 10.2 2.5 15.5q0.2 0 0.4 0c4.2 0 9.7 2.3 15 4.6 3.2 1.4 6.2 2.6 8.7 3.3 0.1-4.7 0.4-9.9 2-15.3-1-3.3-3.1-6.9-5.4-10.3-2.3 1.1-4.9 1.7-7.4 1.7-5.1 0-10.1-2.2-13.5-6.4-6.1-7.3-9.2-30.4-9.3-31.4 0-0.6 0.1-1.1 0.5-1.5 0.4-0.4 0.9-0.5 1.4-0.5 0.8 0.1 18.8 2 29.6 15 4.3 5.3 5.6 14.7 1.4 20.7 1.7 2.5 3.3 5.1 4.5 7.7 1.3-2.8 3-5.7 5.3-8.5 1.2-1.6 3.3-4.2 5.5-6.9-4.7-5.9-3.8-15.6 0.4-21.1 10.4-13.3 28.4-15.8 29.1-15.9 0.5-0.1 1.1 0.1 1.5 0.4 0.3 0.4 0.5 0.9 0.5 1.5-0.1 1-2.4 24.2-8.3 31.7-3.4 4.4-8.6 6.8-13.9 6.8-2.2 0-4.4-0.4-6.5-1.3-2.3 2.8-4.3 5.4-5.6 6.9-7.6 9.6-8.1 19.2-8.3 27.2 3.3 0 6.7-0.9 9.8-1.7 2.5-0.7 4.6-1.3 6.4-1.3 5.4 0 15 7.6 24.2 15 5.5 4.4 10.6 8.5 13.2 9.5 0.8 0.3 1.2 1.1 1.1 1.9-0.2 0.9-0.9 1.5-1.7 1.5h-137c-1 0-1.8-0.8-1.8-1.8 0-0.9 0.8-1.7 1.8-1.7 5.1 0 9.8-4.4 14.8-9q0.3-0.4 0.7-0.7c-5.3-4.3-9.5-9.9-11.9-16.3l-11-28.5c-0.7-1.7-0.7-3.5 0.1-5.2 0.7-1.6 2.1-2.9 3.8-3.6l13.8-5.3-5.6-14.4q-1 0-1.9-0.4zm-5.1 23.4c-0.8 0.3-1.4 0.9-1.8 1.7-0.3 0.8-0.4 1.7-0.1 2.6l11.1 28.5c2.3 6 6.2 11.1 11.2 15.1 3.5-3.1 7.2-5.8 11.3-6.9 4.2-1 7-2.9 10-4.9 3.7-2.4 7.5-4.9 13.5-5.7 0.3-4.9-0.4-9.8-2.2-14.5l-11.1-28.6c-0.6-1.7-2.5-2.5-4.2-1.8l-13.8 5.3 4.3 11.2c1.3 3.2 1.1 7-0.5 10.3-0.3 0.6-1 0.9-1.6 0.9q-0.3 0-0.7-0.1c-3.3-1.3-6-4-7.3-7.3l-4.3-11.1zm11.9 59.9h121.1c-2.4-1.8-5.4-4.1-8.5-6.6-7.5-6-17.8-14.3-22-14.3-1.3 0-3.3 0.6-5.5 1.2-3.6 1-8 2.2-12.3 1.7 0 0-0.1 0.1-0.2 0.1q-0.4 0-0.7-0.2-0.3 0-0.6-0.1c-3-0.6-6.6-2.1-10.5-3.8-5-2.1-10.1-4.3-13.5-4.3-7.5 0-11.4 2.6-15.5 5.4-3.2 2.1-6.4 4.2-11.2 5.4-4.5 1.1-8.8 5.2-13 9-2.5 2.3-4.9 4.7-7.6 6.5zm3.1-91l-15.2-39.2c-0.7-2-2.6-3.2-4.6-3.2q-0.9 0-1.8 0.3c-2.6 1-3.8 3.9-2.8 6.5l15.1 39.2c0.3 0.8 1.3 1.2 2.1 0.9l6.3-2.4c0.8-0.3 1.2-1.3 0.9-2.1zm102.9 27.9c3.9-5 6.4-19.9 7.3-27.6-5 1.1-17.1 4.7-24.6 14.2-3.2 4.1-4 11.5-0.9 16.1 3-3.7 5.9-7.4 7.5-9.3 0.6-0.8 1.7-0.9 2.4-0.3 0.8 0.6 0.9 1.7 0.3 2.5-1.5 1.9-4.4 5.5-7.4 9.2 6.2 2 12.2-0.7 15.4-4.8zm-39.9-5.2c-7.7-9.3-20-12.5-25-13.4 1.2 7.6 4.1 22.4 8.2 27.4 3.4 4.1 9.9 6.6 16.2 4-4.3-5.8-8.8-10.3-8.9-10.4-0.7-0.7-0.7-1.8 0-2.5 0.7-0.7 1.8-0.7 2.5 0 0.3 0.3 4.6 4.6 8.8 10.3 2.5-4.7 1.4-11.6-1.8-15.4zm-52.9 17.4c0.6-1.9 0.5-4-0.2-5.8l-4.9-12.8q0 0 0 0v-0.1l-6-15.6-3.6 1.4 11 28.4c0.7 1.9 2 3.5 3.7 4.5zm3303.2-32.5c-0.6 0.3-1.3 0.4-1.9 0.4l-5.6 14.4 13.8 5.3c1.7 0.7 3.1 2 3.8 3.6 0.8 1.7 0.8 3.5 0.1 5.2l-11 28.5c-2.4 6.4-6.6 12-11.9 16.3q0.4 0.3 0.7 0.7c5 4.6 9.7 9 14.8 9 1 0 1.8 0.8 1.8 1.7 0 1-0.8 1.8-1.8 1.8h-137c-0.8 0-1.5-0.6-1.7-1.5-0.1-0.8 0.3-1.6 1.1-1.9 2.6-1 7.7-5.1 13.2-9.5 9.2-7.4 18.8-15 24.2-15 1.8 0 3.9 0.6 6.4 1.3 3.1 0.8 6.5 1.7 9.8 1.7-0.2-8-0.7-17.6-8.3-27.2-1.2-1.5-3.3-4.1-5.6-6.9-2.1 0.9-4.3 1.3-6.5 1.3-5.3 0-10.5-2.4-13.9-6.8-5.9-7.5-8.2-30.7-8.3-31.7 0-0.6 0.2-1.1 0.5-1.5 0.4-0.3 1-0.5 1.5-0.4 0.7 0.1 18.7 2.6 29.1 15.9 4.2 5.5 5.1 15.2 0.4 21.1 2.2 2.7 4.3 5.3 5.5 6.9 2.3 2.8 4 5.7 5.3 8.5 1.2-2.6 2.8-5.2 4.5-7.7-4.2-6-2.9-15.4 1.4-20.7 10.8-13 28.8-14.9 29.6-15 0.5 0 1 0.1 1.4 0.5 0.4 0.4 0.5 0.9 0.5 1.5-0.1 1-3.2 24.1-9.3 31.4-3.4 4.2-8.4 6.4-13.5 6.4-2.5 0-5.1-0.6-7.4-1.7-2.3 3.4-4.4 7-5.3 10.3 1.5 5.4 1.8 10.6 1.9 15.3 2.5-0.7 5.5-1.9 8.7-3.3 5.3-2.3 10.8-4.6 15-4.6q0.2 0 0.4 0c-0.3-5.3 0.6-10.5 2.5-15.5l11-28.6c1.4-3.5 5.3-5.2 8.8-3.9l13.8 5.4 5.6-14.4c-1.4-1.4-2-3.5-1.2-5.5l15.1-39.2c1.7-4.4 6.6-6.5 11-4.9 4.3 1.7 6.5 6.6 4.8 11l-15.1 39.2c-0.5 1.3-1.5 2.3-2.7 2.9zm-8.7 18.1l-4.3 11.2c-1.3 3.2-3.9 5.9-7.3 7.2q-0.3 0.1-0.7 0.1c-0.6 0-1.2-0.3-1.5-0.9-1.6-3.3-1.8-7.1-0.6-10.3l4.3-11.2-13.7-5.3c-1.7-0.7-3.6 0.2-4.3 1.8l-11 28.6c-1.8 4.7-2.6 9.6-2.3 14.5 6 0.8 9.8 3.3 13.5 5.7 3 2 5.9 3.9 10.1 4.9 4.1 1.1 7.7 3.8 11.2 6.9 5.1-4 9-9.1 11.3-15.1l11-28.5c0.3-0.9 0.3-1.8-0.1-2.6-0.3-0.8-1-1.4-1.8-1.7zm1.9 65.3c-2.7-1.9-5.1-4.2-7.6-6.5-4.2-3.9-8.5-7.9-13-9-4.8-1.2-8-3.4-11.2-5.5-4.1-2.7-8-5.3-15.5-5.3-3.4 0-8.5 2.2-13.5 4.3-3.9 1.6-7.5 3.2-10.5 3.8q-0.3 0-0.6 0.1-0.3 0.1-0.7 0.1c-0.1 0-0.2 0-0.2 0-4.3 0.4-8.7-0.7-12.3-1.7-2.2-0.6-4.2-1.2-5.5-1.2-4.2 0-14.5 8.2-22 14.2-3.1 2.5-6.1 4.9-8.5 6.7h121.1zm-3.1-91c-0.3 0.8 0.1 1.8 1 2.1l6.2 2.4c0.9 0.3 1.8-0.1 2.1-0.9l15.2-39.2c1-2.6-0.3-5.5-2.9-6.5q-0.9-0.3-1.8-0.3c-2 0-3.9 1.2-4.6 3.2l-15.2 39.2zm-87.4 32.6c-3-3.6-5.9-7.3-7.4-9.2-0.6-0.7-0.5-1.8 0.2-2.4 0.8-0.6 1.9-0.5 2.5 0.2 1.5 2 4.5 5.6 7.5 9.4 3.1-4.6 2.2-12-1-16.1-7.4-9.6-19.5-13.1-24.5-14.2 0.9 7.6 3.3 22.6 7.3 27.6 3.1 4.1 9.2 6.8 15.4 4.7zm24.5-9.9c-3.2 3.8-4.3 10.6-1.9 15.4 4.3-5.7 8.6-10 8.9-10.3 0.7-0.7 1.8-0.7 2.4 0 0.7 0.7 0.7 1.8 0 2.5 0 0-4.5 4.6-8.8 10.3 6.3 2.7 12.8 0.1 16.2-4 4.1-4.9 7-19.7 8.1-27.3-5 0.9-17.2 4.1-24.9 13.4zm67.5-15.5l-3.6-1.4-6 15.6v0.1q0 0 0 0l-4.9 12.8c-0.7 1.8-0.8 3.9-0.2 5.8 1.7-1 3-2.6 3.7-4.5 0 0 11-28.4 11-28.4z"/></svg>