<svg version="1.2" xmlns="http://www.w3.org/2000/svg" viewBox="0 0 1955 2466" width="1955" height="2466"><style>.a{fill:#fff}</style><path class="a" d="m1217.7 1412.8c-17.1-8.1-112.4-52.3-180-83.8 73.7-80.1 121.5-169.5 121.5-274.9l-1-549.7h-218.1-244.6c0-157 127.7-284.8 284.8-284.8 152.1 0 276.8 134.5 284.4 284.8l0.4 0.3v660.7c0 70.9 42 135 107 163.1l112 48.6v-668.2h383.3c0-113-91.5-204.5-204.5-204.5h-178.8c0-277.8-226-503.9-503.8-503.9-277.9 0-503.9 226.1-503.9 503.9h-403.6v14.6c0 104.9 85 189.9 189.9 189.9h213.7v255.6c0 121 98.1 219 219.1 219v-306.7h40.9c53 0 95.9-42.9 95.9-95.8h-136.8v-72.1h244.6v345.2c0 119.8-196.1 244.6-385.7 365.2-259.6 165.2-553.8 352.4-553.8 651.5v394.3h219v-394.3c0-178.9 230-325.1 452.4-466.6 61.6-39.3 123.7-78.9 182.1-120.1 55.7 26.3 135.2 63.5 195.5 91.7-155.1 75.7-523.3 278.2-523.3 495v394.3h219.1v-350.5c0-164.3 388.8-353.9 540.6-425.6 64 31.4 125.7 63.1 182.1 95.4-173.4 97.5-407.8 261.2-407.8 434.3v246.4h219.1v-202.6c0-119.8 206.5-252.8 377.2-344 49.3 48.4 78.7 98.9 78.7 152.3v394.3h219.1v-394.3c0-308.3-374.5-486.1-736.7-658z"/></svg>