<svg version="1.2" xmlns="http://www.w3.org/2000/svg" viewBox="0 0 4560 1797" width="4560" height="1797"><style>tspan{white-space:pre}.a{fill:#8cba32}.b{fill:#d83550}.c{fill:none;stroke:#fff;stroke-miterlimit:10;stroke-dasharray:2.9860000610351562,2.9860000610351562}.d{fill:none;stroke:#fff;stroke-miterlimit:10}.e{fill:none;stroke:#fff;stroke-miterlimit:10;stroke-dasharray:3.007999897003174,3.007999897003174}.f{fill:#d83550;stroke:#fff;stroke-miterlimit:10;stroke-dasharray:3}.g{fill:none;stroke:#fff;stroke-miterlimit:10;stroke-width:4}.h{font-size: 40px;line-height: 62px;fill: #ffffff;font-weight: 700;font-family: "JosefinSans-Bold", "Josefin Sans"}.i{font-size: 40px;line-height: 48px;fill: #ffffff;font-weight: 400;font-family: "JosefinSans-Regular", "Josefin Sans"}.j{font-size: 40px;line-height: 48px;fill: #ffffff;font-weight: 700;font-family: "JosefinSans-Bold", "Josefin Sans"}.k{fill:none;stroke:#fff;stroke-miterlimit:10;stroke-width:1.5}.l{fill:#fff}</style><path class="a" d="m2111.2 871c-6.9-2.2-17.1-1.9-22.1-6.4-2.6-2.3-2-6-5.8-7.5-1.8-0.7-4.1 1.4-5.7 0.8-3.2-1-7.6-5-10-7.9-2.8-3.3-3.7 0.2-7-0.8-2.2-0.8-5.2-9.4-6.8-11.3-3.3-0.5-5.9 1.4-8.9 1.4-4.7-0.1-7.3-3-12.5-2.9-3.9 0-8.7 2.3-12.7 2.9-4.1 0.6-8.2 0.5-12.4 0.7-9.7 0.4-18.2 4.7-26.9 1.4-7.6-2.9-9.4-3.9-14.8 3.4-3.6 4.8-12 11.6-19.3 8.1l-3.6-2.2c-3.4-1.1-6.8-1.6-10.4-0.1-2.4 1-3.9 2.8-6.4 3.7-2.1 0.8-4.7 0.8-6.9 1.5-5.7 1.8-10.1 2.6-15.9 3.5-4 0.6-9.3 0.3-13.1 1.4-6.1 1.6-9.1 13.2-15.9 13.6 1.1 3.7-3.3 5.5-4.5 7.5-1.9 3-2.4 7.2-4.1 10.5-4.9 9.7-4.7 12.3-4.8 23.2 0 4.7-0.6 12.4 2.8 16.1 3.8 4.2 9.5 2.3 14.1 5.8 2.7 2 8 7.5 8.4 10.7 0.9 6.1-2.9 8.5-7.7 9.4l5.2-2.1c4-1.9 15-6 20.2-5.7 3.1 0.2 4.8 0.6 7.7 0.5 4.3-0.2 5.9 0.4 9.7 2.7 7 4.1 11.1 1.7 19.1 2.4 5.8 0.5 9.2 1.8 14.4 4.3 5.5 2.6 10.4 1.2 15.3 5.1 8 6.2 16.5 3.4 26.7 3.4 6.5 0 9.5 1.3 15 3.4 4.1 1.6 7.1-0.4 11.3-0.2 1.1 5.4 4.9 15 4.6 20.7 7.5 1 14.4-2.7 22.1-1.6 6.7 1 13.9 3 20.5 4.4 6.6 1.5 13.2-0.3 19.2 0 3.8 0.2 6.6-0.2 9.1-1.8l0.3-0.3c0.9 11 16.7 16.2 25.4 16.5 12.3 0.4 17.6 8.2 28.3 12.4 19.1 7.6 34.8 29 57.8 26.3 0.5-5.8-1.1-10.2 1.3-15.9 1.9-4.6 4.7-7.8 5.4-12.7 1-7.8 2.2-13.7 5.9-21 4.3-8.6 8.2-15.5 7.8-25.5-0.6-15.2-2.5-29 2.1-44.4 2.1-7.4 7.9-14.4 8.5-22 0.7-9.8-12.6-6.3-17-14.2-2.7-4.8-2.3-11.4-5.1-16-3-5.1-6.1-3.7-12-3.7-10.3 0-19.1 0.8-29 3.6-10.1 2.8-20.2 2.2-30.2 4.1-11.1 2.2-6.2-7.6-14.3-11.3-5.7-2.7-16.3 2.1-22.4 2.1z"/><path class="b" d="m1877.5 872.9c0.8 3.1 7.6 7.6 8.9 9.5 0.9 1.4 0.3 3.1 0.2 4.5-0.1 3.3-2 5.4 1.1 8.6 2.3 0.6 3.2-2.1 5.6-1.3 2.5 0.9 2.6 5.5 2.1 7.7-0.2 1.5-2.4 4-1.8 5.6 0.4 1.1 4.2 2.4 5 2.5 2.1 0.3 1.4-0.5 2.4-2.6 0.6-1.4 0.9-2.4 2.7-2.2 1.9 0.2 2.1 2.5 3.5 3.2 1.7 1 1.7-1.8 2.4 1.7 1.1 5.3-5.3 11.1-0.8 16.1 5 1.5 2.7-2.8 5.6-2.6 2.5 0.2 5.1 0.9 7.7 1.1 2.1 0.2 4.1 0.2 6.2-0.1 2.5-0.4 3.1-1.3 5.3-2.3 1.8-0.7 3.1 0 4.6-1.6 1.7-1.8 0.9-3.3-0.4-5.3-1.5-2.3-1.6-3.9-2-6.8-0.2-1.3 0.5-6.1-0.4-6.8-1.5-1.2-5.3 3.2-7.9 2.4-1.1-0.4-2.6-1.5-3.5-1.9-1.1-0.5-2.3-0.9-1.8-2.1 0.6-1.1 4.2-3.2 1.5-4.1-0.8-0.3 0.4-3.8 0-4.3-1.1-1-3.9 0.9-5.3 0.9-2.1-0.1-3.9-1.5-5.3-3-0.7-0.7-0.9-1.6-1.8-2.1-1-0.7-2.2-0.4-2.9-0.8-3.8-2.2 0.5-4.7-1.2-7.5-0.6-1.1-2.1-1.4-3-2.6-1.3-1.8-2.9-3-4.2-3-0.9-0.1-0.1-4.7-0.3-6.2-0.3-4-2.2-7.9-3.5-7.9-11.8-0.2-18.7 13.3-18.7 13.3z"/><path class="c" d="m1877.5 872.9c0.8 3.1 7.6 7.6 8.9 9.5 0.9 1.4 0.3 3.1 0.2 4.5-0.1 3.3-2 5.4 1.1 8.6 2.3 0.6 3.2-2.1 5.6-1.3 2.5 0.9 2.6 5.5 2.1 7.7-0.2 1.5-2.4 4-1.8 5.6 0.4 1.1 4.2 2.4 5 2.5 2.1 0.3 1.4-0.5 2.4-2.6 0.6-1.4 0.9-2.4 2.7-2.2 1.9 0.2 2.1 2.5 3.5 3.2 1.7 1 1.7-1.8 2.4 1.7 1.1 5.3-5.3 11.1-0.8 16.1 5 1.5 2.7-2.8 5.6-2.6 2.5 0.2 5.1 0.9 7.7 1.1 2.1 0.2 4.1 0.2 6.2-0.1 2.5-0.4 3.1-1.3 5.3-2.3 1.8-0.7 3.1 0 4.6-1.6 1.7-1.8 0.9-3.3-0.4-5.3-1.5-2.3-1.6-3.9-2-6.8-0.2-1.3 0.5-6.1-0.4-6.8-1.5-1.2-5.3 3.2-7.9 2.4-1.1-0.4-2.6-1.5-3.5-1.9-1.1-0.5-2.3-0.9-1.8-2.1 0.6-1.1 4.2-3.2 1.5-4.1-0.8-0.3 0.4-3.8 0-4.3-1.1-1-3.9 0.9-5.3 0.9-2.1-0.1-3.9-1.5-5.3-3-0.7-0.7-0.9-1.6-1.8-2.1-1-0.7-2.2-0.4-2.9-0.8-3.8-2.2 0.5-4.7-1.2-7.5-0.6-1.1-2.1-1.4-3-2.6-1.3-1.8-2.9-3-4.2-3-0.9-0.1-0.1-4.7-0.3-6.2-0.3-4-2.2-7.9-3.5-7.9-11.8-0.2-18.7 13.3-18.7 13.3z"/><path class="b" d="m2029.6 906.9c-1.6 0.8-4 1.5-4.1 3.9-0.1 2.2 2.7 4.2 1.8 6.9-0.8 2.6-7.4 3.1-9.9 2.7-3.4-0.4-5 1.2-7 1.8-1.8 0.3-3.4 1.8-4 3.3-1.1 2.7-3.3 2.3-5.8 2.1-3-0.2-2.6-0.9-3.5-3.3-1.2-3.1-3.9-4.6-5.3-7.6-1.2-2.5-2.5-6.3-6-4-2.3 1.4-1.6 3.4-4.8 3.2-3.1-0.2-4.2-2-5.2 1.6-0.7 2.2-1.2 5.4-4.1 2.9-2.5-2.3-1.4-4.7-3.9-0.8-1.2 1.8-2.5 3.1-4.9 2.7-2.1-0.4-2.6 0.3-3.9 2-0.8 1.1-2 2.9-1.7 4.3 1.5 0.8 3.4 0.7 5.1 1.3 2.1 0.9 4.2 1.9 6.2 3 4.6 2.4 8 6.4 13.3 7.3 4.9 0.8 9.3 1.6 13.7 3.8 2.4 1.2 5 2.3 7.5 3 2.1 0.6 4 0.5 6 1.5 2.7 1.3 3.9 2.7 5.2 5.4 1.2 2.3 1.6 4.3 4.1 5 2.3 0.7 2.7 0.6 4.6-0.7 1.6-1.1 3.1-2.4 4.7-3.6 1.4-1 2.2-2.4 3.3-3.8 1-1.4 2.2-2.4 3.5-3.5 1.7-1.7 3.3-3.4 4.9-5.1 5-5.6 8.9-12.4 8.3-20.2-0.3-3.3-1.2-5.4-3.6-7.6-2-1.7-3.8-3.2-4.7-5.9-0.9-2.4-0.4-4.8-3.6-4.2-1.6 0.3-3.7 1.3-5 2-0.4 0.2-1.2 0.6-1.2 0.6z"/><path class="d" d="m1957.4 927.1c-0.1 0.5-0.2 1.1-0.1 1.5q0.6 0.4 1.4 0.5"/><path class="e" d="m1961.6 929.7q0.4 0.1 0.8 0.2c2.1 0.9 4.2 1.9 6.2 3 4.6 2.4 8 6.4 13.3 7.3 4.9 0.8 9.3 1.6 13.7 3.8 2.4 1.2 5 2.3 7.5 3 2.1 0.6 4 0.5 6 1.5 2.7 1.3 3.9 2.7 5.2 5.4 1.2 2.3 1.6 4.3 4.1 5 2.3 0.7 2.7 0.6 4.6-0.7 1.6-1.1 3.1-2.4 4.7-3.6 1.4-1 2.2-2.4 3.3-3.8 1-1.4 2.2-2.4 3.5-3.5 1.7-1.7 3.3-3.4 4.9-5.1 5-5.6 8.9-12.4 8.3-20.2-0.3-3.3-1.2-5.4-3.6-7.6-2-1.7-3.8-3.2-4.7-5.9-0.9-2.4-0.4-4.8-3.6-4.2-1.6 0.3-3.7 1.3-5 2-0.4 0.2-1.2 0.6-1.2 0.6-1.6 0.8-4 1.5-4.1 3.9-0.1 2.2 2.7 4.2 1.8 6.9-0.8 2.6-7.4 3.1-9.9 2.7-3.4-0.4-5 1.2-7 1.8-1.8 0.3-3.4 1.8-4 3.3-1.1 2.7-3.3 2.3-5.8 2.1-3-0.2-2.6-0.9-3.5-3.3-1.2-3.1-3.9-4.6-5.3-7.6-1.2-2.5-2.5-6.3-6-4-2.3 1.4-1.6 3.4-4.8 3.2-3.1-0.2-4.2-2-5.2 1.6-0.7 2.2-1.2 5.4-4.1 2.9-2.5-2.3-1.4-4.7-3.9-0.8-1.2 1.8-2.5 3.1-4.9 2.7-2.1-0.4-2.6 0.3-3.9 2-0.3 0.4-0.6 0.9-1 1.5"/><path class="f" d="m2090.2 868.8c-0.8 0.7-2.6 1.1-2.7 0.1-3-0.1-3.1 4.5-3.5 6.4-0.4 1.8-1.8 2.3-2.7 3.9-1.2 1.9-0.6 3.5-0.6 5.5 0 3.2-1 4.7-2.6 7-0.9 1.4-1.3 2.6-1 4.4 0.3 1.5 1.1 2.2 1 3.7-0.1 2.1-1.6 4.6-2.9 6.1-1.2 1.3-3.5 2.4-2.9 4.5 0.3 0.9 1.5 1.5 1.9 2.6 1.3 3 0.6 4.2 3.2 6.6 2 1.8 2.9 3.9 3.5 6.7 0.7 2.6 1 11.3-3.1 10-2.6-0.8-3.6-4.9-6.1-0.9-1 1.7-1.6 3.3-2.7 4.8-1.1 1.5-1.4 2.6-1.7 4.4-1.2 0.2-2.9-1-4-0.4-1.6 0.9-0.5 2.5-1.7 3.7-1.2 1.3-2.5 0.4-4.1 0.1-2.1-0.5-3.4-0.4-5.6 0-1.9 0.3-4.2 0.5-6 1.4-2.7 1.4-2.3 3.8-3.7 6.1-1 1.5-3.4 2.9-4.5 0.5-0.6-1.1 0.3-3.8-0.1-5.3 0.6-1.3-0.5-2.6-0.8-3.8-0.3-1.2-0.3-1.2 0.8-2.1 1-0.7 1.7-1.4 2.4-2.4 2.6-3.5 5.9-7 6.9-11.3 0.5-2.5 1.1-5.2 1.1-7.8 0.1-1.5-0.5-2.6-0.9-4-0.5-2-1.2-5-2.6-6.5-1.5-1.6-3-2.6-4.2-4.5-1.6-2.4-1.2-3.3-4.5-4-2.6-0.6-2.5-0.6-4.7-0.1-2.4-5.1-4.9-13.8-4.3-19.4 0.3-2.2 0.9-4.4 1.5-6.5 0.7-2.3 3.1-4.9 4.6-6.8 1-1.4 2.4-3.3 3.8-4.2 1.6-1 3.5-1.9 5.3-2.6 1.5-0.6 0.3-1.1 1.5-2.4 1.2-1.4 2.2-3.3 3.1-5 2.3-4.4 3-10.3 6.9-13.8 3.1-2.8 3.8 3.4 5.5 4.6 1.7 1.3 4.4-0.4 6.3 0.1 2 0.5 3.4 3.2 4.8 4.6 2.4 2.4 5.7 4.8 9.2 4.9 1.9 0.1 4.1-0.1 5.7 1.2 1.5 1.2 2.4 1.8 3.6 3.5 1 1.5 2.1 1.2 2 3.1-0.1 0.5 4-0.6-0.4 3.3z"/><path class="f" d="m2164.8 882.9l-1.8 0.7-1.7 0.9c-1.9 0.2-4.3-0.9-4 2.1 0.2 1.7 2.1 2.4 2.8 3.8 0.6 1.6-0.1 3.4 0.5 5 0.9 2.2 4.4 1 4.6 4-1.5 4.2-8.6 1.8-8.7 7.2-0.1 1.3 0.9 1.7 0.3 3.3-0.3 1-1.2 1.9-1.6 3-1.1 3-0.8 6.6-4.6 7.2-1.8 0.2-3.6-0.4-5.4 0.4-2.1 1-3.1 3.1-4.6 4.7-2.7 2.9-3.6 1.3-6.7 2-5.7 1.4-8.1 12.5-3.7 16.3 1.2 1 3.7 1.9 4.4 3.7 0.7 2-1.6 5.4-1.4 7 0.5 2.1 3.5 3.8 2.1 6.2-1.9 3.5-6.2 2.3-9.1 4.3-4 2.7-11.4 3.4-11.4 9.7 0.1 2.2 1.4 3.7 1 6.1-0.3 1.8-2.1 4.1-0.1 5.7 0.6 0.6 2.1 0.1 2.8 0.9 0.6 0.7 0.2 1.4 0.5 2.2 0.9 1.6 2.7 1.5 2.6 3.7-0.1 2.1-1.6 2.1-3.2 3.1-2.4 1.6-4.8 3.7-6.6 6-0.5 0.6-0.7 1.3-1.2 1.9-1.3 1.6-2.9 0.5-4.5-0.5-2.8-1.9-6.6-4.7-7.6-8.1-0.3-1.5 0-2.8 0.7-3.9 1.2-1.7 2.5-3.5 3.7-5.1 1.7-2.2 2.6-4.6 4.1-7 1.1-1.8 2.8-3.3 3.4-5.4 1.7-5.6 1.5-11.8 1.5-17.6 0-8-2.5-15.8-3.5-23.7-0.8-5.8-2.7-11.9-1.4-17.7 0.6-3 2.1-5.8 2.8-8.8 0.6-2.4 1-5.2 1.2-7.7 0.5-4.5 0.4-9.3 2.6-13.4 1.9-3.7 1.8-10.9-1.6-13.5 1.4 0.5 2.3-0.1 3.5-0.4 1.9-0.5 3.9-1 5.9-1.5 4-1 9.1-2.1 12.9 0.2 1.9 1.1 4.2 2.7 5 4.8 0.7 1.6 1 3.3 2.5 4.5 1.4 1.1 3.2 1 4.9 1 2.3 0.2 4.6 0.2 6.8 0 2.3-0.3 4.6-0.7 6.9-1 1.7-0.2 3.9-0.4 5.5-0.9 0.1 1.1-0.7 3.6-1.1 4.6z"/><path class="g" d="m753.7 857.5c-8.7 10.2-29.3-6.2-41.5 0.2-3.7 1.9-6.3 5.6-10.2 7.1-7.1 2.6-13.8-2-21-1.9-4.6 0.1-13.4 3.6-17.2 0.1-5.6-5.1-1.6-21.9-5.3-28.8-7.1-13-13.6-19.3-28.5-16.2-4.9 0.9-11 3.6-16.3 2.6-8.1-1.4-5.5-5.8-6.4-12.1-1.5-10-16.4-22.3 1.3-24.2 1.6-0.1 5.4 0.9 6.8 0.1 1.9-1.2 0.5-3.3 2.1-4.6 3.8-3.1 7.4-1.6 11.8-4.3 5.8-3.7 2.6-9 5.5-13.2 2.4-3.5 7.4-3.2 12.1-2.8 14.3 1.2 25.8 0.3 40.3-1.3 7.2-0.8 14.8-2.2 21.1-5.8 5.1-2.8 7.7-5.6 13.7-6.8 1.3 4.5 1.3 5.4 4.1 8.7 3 3.4 6.6 5.5 8.8 10 4.5 9.7 1.1 21.3-0.8 31.3-2.1 10.6 0.5 20.7 0.8 31.6 0.1 7.3 0.6 16.6 4.2 22.8 2.3 4.1 10.5 12.3 14.6 7.5zm178.6-17.4c-0.3-3.8-0.8-11.4 0-14.8 0.9-4.1 3.1-5.3 6.2-8.1 3.5-3.1 6.2-6.8 8.5-10.2 2.6-3.8 5.5-4.8 1.5-10.5-3.6-5.1-11.1-4.4-14.6-10-2.8-4.6-2.5-11.8-4.8-17-2.7-6-5.8-12.2-7.7-18.8-2.3-7.5-2.2-13.7-7.9-20-3.9-4.3-9.9-6.9-13.4-11.5-3.3-4.2-4.4-10.2-7.4-14.2-4.9 3.9-0.8 9.6-6.9 11.5-2.2 0.7-6.3-0.2-8.5-0.7-1.8-0.4-2.2 0.9-3.9 0-1.1-0.5-1.1-3-1.6-3.3-4.7-2.6-11.2-2.8-13.3 2.6-2.9 7.5 2 10.4-6.5 14.5-7.4 3.6-13.3 1.1-21.1 1-2.5 0-6.5 1.1-8.7 0.7-5.6-1.1-2.2-0.6-5.5-4.7-2.9-3.6-9.1-9.6-14-10.1-7.2-0.9-6.3 5.4-11.1 8.4-10.9 6.8-22.2-16.7-33.1-17-2.3 7.9-10.4 14.4-15.2 21.1-4.4 6.1-16.6 11.2-21.3 16.6m210.1 94.2c0.6 4.2-8.1 3.1-11 3.4-5.7 0.5-8.9-0.4-13 3.1-5.9 5-7.9 5.4-16.4 5-6.6-0.3-12.8-0.4-19.4 0.5-6.2 0.8-7.5-1.2-12.9-2.7-4.9-1.5-12.3 1.7-17.8 1.4-8-0.4-16.3 0.5-24.2-1.4-10-2.4-18-2.5-28.1-1.9-5.7 0.4-6.6 2-11.1 4.1-3.9 1.9-8.3 0.6-12.5 1-4.2 0.5-10.5 5.3-14.3 6.6m189.5-13.4c12.7-0.7 12.5 8.2 24.4 9.4 11.8 1.1 18.7 5.5 30 5.2 10.9-0.3 21.2 1.1 31.8 2 8.8 0.8 19 0 27.7 1.6 12.7 2.3 19.4 6.4 22.4 19 5.5 0.4 10.9-0.1 16.2 1.5 4.4 1.3 12.2 8.1 16.9 7.1 6.1-1.3 2.2-5.2 6.2-7.9 4.7-3.3 7-1.8 13.2-1.5 21 1.1 42.4-1.9 63.7 1.3 11.2 1.6 19.4 0.7 30.7 0.8 5.2 0 10.2 3.1 15.6 2 4.8-0.9 6.3-4.4 10.6-6.4 7.8-3.6 20.2-3.7 28.1-0.8 6.3 2.3 5.7 3.6 10.7 7.8 5.5 4.5 5.5 2.5 12.4 4.7 4.3 1.4 10.9 9.1 13.5 9.4 4.7 0.6 11.3-7 15.1-9.4 10.5-6.5 15.5-11.2-1.2-14.6 1-4 1.7-8.9 1.9-13.4 5.6-3 0.9-20.9-0.4-27.1-0.8-4-3.6-7.4-4.2-10.1-1.3-5.8 0-12-0.7-18-1.1-9-5.8-22.7-11.6-30-7.4-9.6-18.8-8-29.4-12.6 1-8.1 0-18.1-2.3-27-3.7-14.2-8.5-8.9-19.9-9.3-3.9-11.1 2.1-24.6-17.3-18.6-9 2.7-13.9 10.2-26.6 9-6.8-17-24.5-31.1-33.4-47.7-4.2-8-7.9-16.2-11.8-24.3-2.9-6.2-2.6-13.3-6.5-19.1-4.8-7.1-9.5-6.8-16.9-8.5-8-1.9-14.3-5-22.3-7.3-12.3-3.6-26-8.6-38.8-11.2-16.3-3.3-17.9 5.8-30.3 13.2 5.7 7.5 6.2 38-1.6 44.8-4.9 4.2-14.3 1.9-20.3 3.1-7.5 1.4-14.4 4.4-21.8 6.2-8.5 2-16.6 2-24 6.3-2.5 1.3-2.7 4.6-6.2 6-3.3 1.3-7.9-0.2-11.4 0.2-13.6 1.7-25.5 9.6-38.9 11.5-4.7 0.6-9.6-0.8-14.1 1-3.7 1.4-4.5 3.7-7.3 5.2-5.1 2.8-11.2 3.2-16.4 6.2q-0.5-1.5-0.2-3.1m433.9 189.2c22.5 5.2 58.9 3.8 80.7 12.4 7.9 3.1 17 9.4 24.8 11.5 11 2.9 22.7-3.6 33.8-1.1 10.1 2.3 16.7 12.9 27.3 16.9 11.3 4.4 24.3 3.3 35.8 6.3 11.2 2.9 19.6 3.6 29.8 9.5 9.4 5.4 18.3 9.1 29.2 8.9 4.5-0.1 15.3 0.1 19.2-2.1 4.1-2.3 5.5-7.6 9.9-11.2 9.7-7.9 12.1-7.3 11.3-21.9-11.8-6.2-16.5-9.7-21.7-22-1.6-3.9-7.5-6.5-3.7-12.5 2.7-4.4 14.1-4.7 18.3-5.7 12.3-2.8 21.1 1.2 27.6-10.8 5.2-9.7 13.5-26.2 11.7-37.3-5.2-0.3-8.7 3.7-13.4 5-5.6 1.5-11.8 1.2-17.7 2-12.3 1.8-15.1 3.6-23.6-6.3-9.3-10.8-12.4-12.3-27.3-12.3-12.1 0-20.9 0.7-31.5-5.3-9-5-12-12.9-20.2-19.5-7.1-5.7-17.8-7.9-25.2-12.7-7.4-4.9-12.4-12.7-21.8-16.6-7.7-3.2-16-5.9-23.9-8.3-6.6-2-18.5-2.1-24.1-5.9-8.2-5.7-6.1-21 3.5-23.2-9-6.4-8.9-21.5-22.8-22.1-8.1-0.3-20.8 11.4-29.6 15.6-15.4 7.2-18.2 4.6-32-4.4-12-7.9-21.3-1.4-33.7 1.7-12.5 3.1-30.4 6.1-42.6 10.2m339.4 215.6c14.5-0.1 45.1-7.8 59.4-4.4 16.2 3.9 21.3 19.6 34 27.7 5.9 3.8 11 1.7 17.8 1 8.5-0.9 16.6 2.2 25.1 1.4 7.4-0.7 12.7-3.9 20.1-4.2 5.9-0.2 10.7 1.1 16.5 1.4 6.1 0.3 11.2 0.8 15.8-3.1 6.2-5.2 5.1-5.9 14.2-6.7 15.4-1.4 28.4-2.1 43.7-1.5 6.7 0.3 23.6 2.7 21.8-9.4-0.4-3.2-5.7-8.7-8.4-10.7-4.6-3.5-10.3-1.6-14.1-5.8-3.4-3.8-2.8-11.4-2.8-16.2 0.1-10.9-0.1-13.4 4.8-23.1 1.7-3.4 2.2-7.5 4.1-10.6 1.2-2 5.6-3.7 4.5-7.4-1-3.7-9.1-4.6-12.5-4.7-1.1-7.9-12.8-13.4-17.6-5.5-2.4 4.1 1.4 10.7-2.1 14.2-2.6 2.7-7.3 0.5-10.7 1.3-3.9 0.9-6.4 3.4-10.4 4.2-4.5 0.9-12.3 1.4-16.6 1.4-6 0-8.2-3.7-13.8-5.2-2.7-0.8-10.3 1.1-12.2-0.8-3-3.2 1.8-5.7-0.3-9.1-1.5-2.3-9-3.3-11.3-3.5-3.9-0.4-7.3 0.4-11.2 0.3-6.1-0.1-9.5-3.5-14.8-5.2-6.9-2.1-18.4-2.2-23.7-8.3-4.6-5.2-1.2-12.2-6.5-17.2-1.9-1.8-9.7-7.6-13-6.5-3.6 1.1-3.4 7.7-7.5 9.8-4.5 2.2-6.6-1.1-10.6-1.9-3.4-0.7-11.7-5.2-15.2-5.2m210 41.9c6.8-0.4 9.8-12 15.9-13.7 3.8-1 9.1-0.7 13.1-1.4 5.8-0.9 10.2-1.7 15.9-3.4 2.2-0.7 4.8-0.7 6.9-1.5 2.5-0.9 4-2.7 6.4-3.7 3.6-1.5 7-1 10.4 0 6.4 2.1 2.9 4.8 6.1 10 1.8 2.8 5.7 3.5 7.9 6 1.2 1.3 3.7 5.3 4 6.8 1.1 6.5-3.8 9.1-6.2 13.7-2.4 4.5-2.5 8.6-6.4 12.5-4 4-3.3 2.3-3.4 6.8-0.3 8.7-0.2 15.9 7.5 20.9 5.5 3.5 12.3 2.3 17.6 5.8 6.2 4.1 6.4 6.8 13.8 6.7 5.9-0.1 8.8 3 13.9 5.4 4.2 2 10.9 0.3 14.2 3.7 2.2 2.3 1.6 6.1 3.7 8.5 1.7 1.9 3.8 1.4 5.5 2.9 3 2.6 2.2 7.1 2 11-4.2-0.2-7.2 1.7-11.3 0.2-5.5-2.1-8.5-3.4-15-3.4-10.2 0-18.7 2.7-26.7-3.5-4.9-3.8-9.8-2.4-15.3-5-5.2-2.5-8.6-3.8-14.4-4.3-8-0.7-12.1 1.7-19.1-2.4-3.8-2.3-5.4-2.9-9.7-2.7-2.9 0.1-4.6-0.3-7.7-0.5-5.2-0.3-16.2 3.8-20.2 5.7m137.4 4.9c6.9-6.6 17.9-13.5 22.5-21.4 2.6-4.3 6.2-14.8 4-19.6-3-6.8-7.9-6-9.4-15.2-2.2-0.3-4.7-0.2-6.9 0.3-4.7-14.9-6.3-25.7 5.6-36.9 2.1-2 5-1.9 6.8-3.6 3.5-3.3 3-7.8 5.3-11.6 3.7-6.3 6.7-6.3 5-14.4-3.3-0.6-5.9 1.4-8.9 1.3-4.7-0.1-7.3-2.9-12.5-2.9-3.9 0-8.7 2.3-12.7 2.9-4.1 0.6-8.2 0.6-12.4 0.8-9.7 0.4-18.2 4.6-26.9 1.4-7.6-2.9-9.4-3.9-14.8 3.4-3.6 4.7-12 11.5-19.3 8.1m76.6 118.4c1.1 5.4 4.9 15 4.6 20.6 7.5 1 14.4-2.6 22.1-1.5 6.7 1 13.9 2.9 20.5 4.4 6.6 1.5 13.2-0.4 19.2-0.1 6 0.3 9.6-0.8 13.5-6.2 7.3-10 11.3-27.1 8.5-39.5-1.5-6.6-2.4-13.3-4.1-19.8-2-7.8-1.1-13.2 2-21.2 2.7-7 2.1-11.3 2.3-18.6 0.1-4.3 3.2-6.2 3.3-9.2 0.1-3-2.8-6.4-3.6-9.3-6.9-2.1-17.1-1.8-22.1-6.3-2.6-2.4-2-6-5.8-7.5-1.8-0.8-4.1 1.4-5.7 0.8-3.2-1.1-7.6-5-10-7.9-2.8-3.3-3.7 0.2-7-0.9-2.2-0.7-5.2-9.3-6.8-11.2m44.9 154.8c0.9 11 16.7 16.2 25.4 16.5 12.3 0.3 17.6 8.1 28.3 12.4 19.1 7.5 34.8 29 57.8 26.3 0.5-5.8-1.1-10.2 1.3-15.9 1.9-4.6 4.7-7.8 5.4-12.8 1-7.7 2.2-13.6 5.9-21 4.3-8.5 8.2-15.4 7.8-25.4-0.6-15.2-2.5-29 2.1-44.4 2.1-7.4 7.9-14.4 8.5-22 0.7-9.8-12.6-6.4-17-14.3-2.7-4.7-2.3-11.3-5.1-15.9-3-5.1-6.1-3.7-12-3.7-10.3 0-19.1 0.8-29 3.5-10.1 2.9-20.2 2.3-30.2 4.2-11.1 2.2-6.2-7.7-14.3-11.4-5.7-2.6-16.3 2.1-22.4 2.1m99 177c6.4 2.5 22.6 0.5 29.1 3.8 3.9 1.9 6.6 6.6 10.5 8.8 5.3 3 10 2.5 16 3.8 11 2.2 19.7 10.2 30.7 11.3 6.4 0.6 12.9-0.7 17.7 4.5 5.3 5.6 0.2 13.3 3.6 17.5 2.7 3.5 18.2 5 22.6 6.3 7 2.1 18.9 6.3 26.1 2.3 6-3.4 5.3-11.3 9.1-15.3 11-11.6 37.7 1.5 52.2 0.8 1.9-11.9-10.4-14.3-17.6-18-5.7-2.9-8.4-7.9-15.1-8.3-6.2-0.4-11.8 2.5-18.4 1.5-30.3-4.3-24.1-21.7-22.9-45.8 10.4-4.3 19.3-11.9 22.7-23.1 3.5-11.3 2.6-23.2 13-29.7 1.8-1.1 4.1 0.7 6.9-1.9 1.5-1.5 2.2-5 2.3-6.9 0.5-10.5-5.1-3.3-10.8-7.8-6.9-5.6-1-23.7-3.6-32.2-14.9-2.6-16.7 19.8-31.9 11.3-5.3-2.9-6.2-7.2-12.8-7.2-7.4 0.1-10.3 8.4-17.9 6.9-5.6-1-7.9-6.5-13.7-7.7-8.1-1.6-10.7 4-16.6 6.9-12 5.8-20.1-2.6-29-7.7-9.6-5.4-13.4-14.7-22.2-20.5m187.6 190.2c3.7-0.4 12.8-5.5 16.4-5.7 3.7-0.3 7.1 2 10.9 1.6 6.8-0.6 12.2-6 17.3-10.1 9.4-7.4 25.9-5.6 37.7-5.8 0.4-4.1-3.9-5.5-5.9-8.6-1.8-2.9-4.7-9-4.9-12.6-0.3-5.1 3.6-11.6 4.5-16.9 0.9-5.1 1.3-10.5 2.2-15.1 1.2-5.9-0.2-10.6-0.8-16.5-0.6-6.2 1-11.7 0.7-17.8-0.4-6.6 0.3-7.9 3.8-13.6 1.7-2.8 6.5-7.3 7.4-10.1 1.3-4.3-1.2-5.5-4.9-6.6-4.4-1.3-9.3-3.8-13.7-4.8-10.8-2.5-27.3 2-36.8-5-3.9-2.8-4.3-8.6-7.3-12-3.4-4.1-6.7-3.6-8-9.3-1-4 0.5-7.1-2.4-10.2-1.6-1.9-8.3-5-10.8-5.1-4-0.2-5.3 3.5-9.3 5.4-3.7 1.6-8.4 3.1-12.2 4.7-7.1 3-19.9 1.9-27.4 1.9m125.8 152.2c7.4 1 19.3 8.8 26.7 10.3 4.7 1 7.9-0.8 10.7 4.1 2.2 3.9 1.4 8.3 5.6 11 1.8 1.2 4.2 1.1 6.1 2.2 2.3 1.4 3.8 3.6 6.3 4.9 4.8 2.5 10.8 1.4 16 1 9-0.7 20.2 0.6 28.3 4.5 6.7 3.3 19.4 9.5 27 8.1 1.7-0.3 3.3-2.1 5-2.5 1.1-0.4 2.9 0.4 4-0.1 3.1-1.4 3.1-2.3 2.3-5.7-1.1-5.2-3.9-7.7-3.7-13.5 0.3-7.7-0.1-14-1.7-21.6-1.8-8.7-3.8-19.3-0.3-27.6 3.1-7.4 12.9-7.5 10.2-18.3-0.9-3.7-4.9-7.6-7.3-10.2-4.4-4.8-5-9.2-5.4-15.9-0.4-5.2-0.3-11.3-2.4-16.2-4.5-0.1-9.5-1.6-13.6-3.7-2.5-1.4-4.7-3.5-7.2-5-3-1.7-6.7-2.2-9.4-4.2-6.6-4.7-7.8-12.1-17.1-12.6-6.1-0.2-6.6 2.7-10.8 5.8-9.7 7.1-11.5-5.8-19.4-8.4-2.8-0.9-8.7-0.5-11.6 0-4.1 0.7-4.7 3.6-8 4.9-4.3 1.8-8.4-1.3-11.8-3.1-3.2-1.7-8.5-2.7-11.8-3.7m130.3 158.3c3.6 0.8 14 4.2 18.3 2.6 5.3-2 6.5-9.5 12.6-9.9 3.1-0.2 5 2.2 8.5 1.6 3.6-0.7 7.2-3.8 8.9-7 2.2-3.8 1.3-11.2 5.8-11.9 4.9-0.9 10.2 7.3 15.1 6 1.8-0.5 3.9-4 3.9-6 0-3.8-1.6-1.8-2.6-4.2-3.1-7.3 2.4-12.2 1.1-19.2-0.8-4.3-2.9-4.2-5.2-7-2.9-3.7-3.8-8.4-8.5-10.3-2.3-0.9-6.6 0.5-8.4-0.6-2.8-1.8-2.9-9.2-2.4-12.6 1.3-8.6 6.1-7.4 13.1-4.7 2.3 0.9 4.7 1.6 6.6 3.1 2.3 1.8 3.2 6.2 5.3 7.5 4.1 2.6 10.8-1.8 13.2-5 3-4 0.4-7.5 1.5-11.2 0.7-2.4 6.3-8.2 9.3-8.3 3.9-0.2 4 2.5 5.3 6.2 0.9 2.7 1.1 8.3 3 10.3 3.7 3.6 8.1-0.2 11.7-0.8 5.9-0.9 6.3 2.6 10.8 5.2 4.4 2.4 6.2 1.2 10.5-0.6 7.4-3.1 7.6 1 14.7 1.6 3.5 0.3 7.2-0.8 9.8-3.2 1.7-1.6 1.5-3.6 3.9-4.8 6.6-3.3 15.1 11.7 21.1 14 5.4 2.2 11.5-1.2 17.1-1.1 3.8 0.1 5.7 1.6 9 2.9 7.7 2.9 12-0.8 19.5-0.8-7.9-5.4-0.2-11.9 1.7-18.6 1.9-6.6 2-14 2.5-20.7 0.3-4.3-1-4.6 3.2-8 2.5-1.9 4.9-3.8 7.6-6.1 2.6-2.3 4.6-2.6 6.2-5.9 1.3-2.7 1.7-5.8 3.3-8.6 3-5.2 7.8-13.8-0.5-15.1-2.5-0.4-8.3 0-10.9 0.4-4 0.7-5 4.2-8.1 5.1-5.1 1.4-9-7-14.2-1.5-2.8 2.9-1.9 6.7-6.6 8.9-3.6 1.7-5.7 1.5-8.9-0.8-5.4-3.9-11.8-21.6-20.6-11.4-2.2 2.5-2.5 8.4-3.3 11.6-1.2 5-4 8.9-5.3 13.6-2.3 0.1-5.2 0.5-7.5 0.1-3.1-0.6-5.6-2.6-8.9-2.8-3.6-0.1-6.2 1.3-9.8 1.2-5.7-0.2-10.8-3.1-16.6-3.4-7.5-0.3-12.8 3.6-19.6 5.1-4.2 0.9-13.4-0.2-15.7-4.8-4.1-8.1 4.9-14.3-7.2-17.8-8.7-2.5-8.8 2.1-15.2 5.2-6.8 3.3-21.1 4-28.5 3.7-7.9-0.4-15.9-1-23.8-0.6-7.6 0.4-17-0.4-24 2.1-4.5 1.6-8 6.5-11.4 9m86.6 115.4c0.1 5.5-4.1 7.7-5.4 12.1-2 7.1 9.2 6.7 13.5 6.2 5.1-0.7 13.4-0.8 17.9 2.6 2.3 1.8 2.9 4.8 5.9 6 3 1.2 7.8 0.1 10.9-0.5 2.2-0.4 5.4-2.2 7.6-0.9 1.9 1.1 1.3 3.5 3.4 4.3 1.7 0.7 4.5-1 5.8-1.6 3.6-1.5 6.3-3.8 10.1-4.2 2.1-0.2 3.8 0.4 5.8 0.7 10.9 2 23.2 10 34.1 5.4 7.2-3.1 14.2-1.2 16-10.8 0.6-2.9-0.2-5.5-0.3-8.4-0.2-3.6 1.7-7.8 0.7-11.3-1.1-4.4-5.9-4-9-7.3-3.1-3.3-5.7-7.3-8.8-10.6-2.9-3.2-4.5-2.9-8.5-4.2-4.1-1.4-6.3-3.7-10.9-4.1-4-0.2-8.1 0-11 3.3-2.1 2.3-2 5.3-3.8 7.9-3.7 5.2-11.2 6.4-16.9 4.3-4.7-1.8-9.3-6.7-13.3-9.3-5.8-3.8-10.5-3.7-17.2-3.3-7.8 0.4-19.2-0.6-23.6 6.9-1.9 3.2-0.6 6.9-1.5 10.3-0.5 1.9-2.9 5.4-1.5 6.5zm155.5-55.3c2 1.1 19.2 3.4 21.6 4.4 2.2 0.9 5.2 4.1 7.4 4.5 4.8 0.9 10.1-4.9 14.5 0.7 6.4-4.7 5.6-11.4 6-18.5 1.2-0.6 2.7-0.9 3.9-0.9-0.1 4.2 2.5 7.8 6.2 4.2 10.3 3.5 4.2 14 3.3 19.2 5.8 1.1 9.3-4.3 14.3-5.8 3.9 8.7 5.6 10.8 14.4 9.9 5.3-0.6 13.5-2.3 15-8.3 0.9-3.6-4.1-14.4-8.4-15.8-2.7-1-4.6 3.1-7.3 2.5-1.4-0.3-2.5-2.4-3.7-2.6-3.6-0.5-4.7-2.7-10-1.8-2.9-9 7.7-10.4 14.3-11 8.1-0.8 8.5-0.2 10.9 8.7 1.7 6.2 0.3 4.2 3.3 8.1 0.9 1.1 4.3 2.3 5.7 3.9 4.5 5.1 4.1 12.1 13.5 9 1.5 6.8 2.5 10.6 10.5 9.9 5.4-0.5 8.7-5.6 13.9-1.6 0.6-10.8-7.6-30.9 8.4-31.8 6.9 14-3.6 31.5 10.3 41.1 5.7 3.9 8.1 7.3 14 9.2 3.5 1.2 5.4 0.2 8.7 1.9 3.9 1.9 3.8 5.8 9.2 5.8 1.3 0 8.9-2.7 10.3-3.5 2.4-1.1 3.2-0.6 5.8-2.5 1.9-1.3 1.1-5.5 3.5-6.6 7.9-3.8 21.2 10.4 28.4 12.6 2.8 0.8 8.3-1.8 9.3 2.4 1.8 6.9-17 6.1-20.1 6-9.8-0.3-19.6-3.4-26.2 5-5.1 6.4-1.5 7.4-9.3 9.1-2.4 0.6-2.8-3.1-5.9-1.8-1.6 0.7-3.4 3.8-4.4 5.3-1.9 2.8 0 8.2-5.6 7.7-5.5-0.5-7.2-12-7-16.1-2.7 0.6-5.8 0.9-8.2 0.8-2-7 5-3.5 5.6-6.9 1.5-8.4-3.3-3.5-7.7-3.7-6.7-0.1-11.6-3.5-18.2-7.1-0.9 1.3-4.1 2.7-5 4.5-7.5-10.6-11.3-10-22.1-6.2-6.9 2.5-16.5 0.9-20.7 6.5-0.6-1.7 0.1-7.9-1-9-3.2-3.5-11.6 0.5-14.3 2.5-4.6-8.3-13.2 10 2.5 6.9 1 8.8-9.2 12.5-13.8 6.1-2.1-2.9-0.7-7.7-2.8-10-2.8-3-10.5-2.7-14.4-4-3.2 4.5-4.8 5.3-9.2 7.8-2.3 1.3-9.7 2.2-10.5 5.9-1.5 6.5 9.7 7.3 14.3 7.1 7.2-0.3 10.2-3.2 12.1 5.3 8.3-7.5 14.1 3.8 8 10.3-4.4 4.6-15.7 2-6.8 12.6 4-1.5 8.7-6.2 11.6-1.7 2.2-1.4 5.2-1.7 7.3-2.4 0.3 8 0.6 12.2-5.1 17.6 4.9 7.1 6.3 0.3 9.8-2.6 3.8-3.3 4.3-4.7 10.4-4.2 1-3.9 3.2-7.1 4.6-10.9 0.7-0.1 1.4 0.1 2.2-0.1-0.5-4.2-11.3-12.6-5-17.4 2.3-1.8 5.4 1.4 7.4 0.8 4.4-1.4 6.6-5.2 10.1-8.6 6 4.4 5.2 15 12 18.5 2.6 1.3 6.5-0.9 9.1 0.1 2.8 1.1 3 2.9 5.2 4.3 2.3 1.4 9 7.3 12.5 3.4 6.5-7.2-6.5-11.4-11.8-8.6-0.1-2-1.7-4.2-1.7-6.4-4.5-0.2-4.7-4.4-4.8-8.6 6.8-0.3 10.8-5.2 18.4-1.8 5.7 2.6 5.7 2.9 6.8 10.8 2-0.4 4.6 0.7 6.6 0.2-0.6 3.8-4 5.5-5 9.2-0.7 2.4 1.2 7.3 1 10.1 1.9-0.5 4.5 0.5 6.4 0.1 1.9 4.6 4.2 25.8 12 12.5 3.5-5.8-1.1-18.9-8.3-16.1 0.7-6.6 12.5-4.2 17.5-3.9-0.3 6.3 1.4 13.7 2.6 19.8 1.5 8.1 3.6 8.6 10.1 12.7-0.1-8.6 5-4.9 9.5-6 0.7-0.1 2 1.5 3.4 1.1 3.3-0.9 5-4.8 8.2-5.9 4.3 7.4 9 13.8 14.1 20.8 2 2.8 3.6 4.4 5.2 6.1 0.3 0.5 2.2-0.4 2.5-0.1 1.5 1.6 1.4 4.3 3 6 3.1 3.4 10.2 12.1 16.4 8.5 7.7-4.5 0-18.7-6.7-20.3-1.7-6 7.4-8.3 10-13.2 2.1-4 3.1-10.1 5-14.4-0.8-0.2-1.6 0-2.4-0.2 1.9-11.3-2.8-12.5-5.3-20.9-3-10.7 7.4-16.1 17.4-18.5 8.1-1.9 8.9 3.6 15.2 4.2 5.9 0.5 7.7-4.6 13.1-3 11.4 3.3 1.5 16.7 18.3 15.7 2.4 5.1 11.3 2.9 13.1-2.7 1.7-5.6-5.6-6.8-1.2-13.4 4.7 2.3 7.8-0.6 9.6-0.1 5 1.3 6 3.5 9.6 6.8 3.9 3.6 11.1 9.7 16.1 11.2 6.9 2 9.2-4.8 14.7-3.6 13 2.7 4.5 22-1.2 26.2-2.1-6.2-7.2-5.2-12.6-4.5-2.5 0.4-3.4-1.3-6-0.2-2 0.9-3.1 4.9-5.7 5.7-7.1 2.3-15.8-7.1-23.2-4.5-12.1 4.2 2.3 15.3 9.6 16.7 7.5 1.6 10.9 2 16.3-0.7 6.4-3.3 6.4-9.1 10.9-0.2 3.9 7.6-0.3 14.2 12.5 14.6-0.9 2.3-0.9 5.2-2.7 7.4 7.1 13 12.5-10.7 16.5-11.8 7.1-2 9.7 7.5 15.5 8.5 5.9 1.1 12.3-5 14.4-9.6 3.9-8.4-3.1-23.8-11.2-12.3-9.9-7.7 1.6-29.4-15.8-27.8 0.1-5.3 5.6-14.4 3.6-19.6-2.1-5.3-7.6-2.7-9.5-6-4.2-7.2 4.9-12.1 10.6-8.8 6.5 3.8 5.6 13.3 15.4 11.8 0.1 1.2 0.7 2.2 0.9 3.3 1.4 0 5.2-0.4 6.6-0.8 0.7-6.6 0.4-18.4 2.6-24.5 2.1-5.5 8.8-6.8 13.3-9.6 5.3-3.4 6.6-7 9.5-11.4 3.3-4.9 5.5-11.7 14.3-10.1 0-4.1 0.1-8.3 0-12.5-3.2-0.6-5.5-5.4-7.3-5.7-5-0.9-10.7 5.5-14.4 6.5-0.8 0.2-2.7-1.4-4.1-0.9-0.9 0.2-6.8 4.2-7.3 4.2-6.1-0.7-1.4-5.4-5.5-8.5-4.1-3-7.4 1.7-10.9 2.1-7.6 0.9-6.4 0.2-10.2-5.6-3.4-5.1-7-12.3-7.6-18.3-1-10.6 4.1-19.3-12.3-20.2-11.8-0.6-14.1 14.3-24.7 15.6-4.4 0.6-5.9-2.9-10.1-3.8-3.7-0.8-7.8 1.2-11.7 0.1-7.6-2.2-23-7.9-27.6-15-4.8-7.4-0.7-8.1-10.8-10.3-5-1.2-7.5-2.8-12.3-4.3-5.7-1.7-11.8 2.5-16.6 1-5.3-1.5-5.6-10.1-12-3.3-5.9-14.2-25.3-16.5-28.5-0.1-1.8 9.4-0.8 11.5 5.5 16.8 4.5 3.7 2.4 4.6 9 4.9 9.8 0.6 7.9-5 13.3 4 3.2 5.4 0.9 14.8 5.9 18.9 5.3 4.3 18.1 1.3 24.5 0.8 8.8-0.6 11.7 0.5 18.4 6.7 3 2.8 4.9 4.8 4.9 4.8l5.4 5.1c-15.9 8.1-12.2-9.3-23.3-9.9-9.3-0.5-9.9 6.4-18.7 6.8-11.9 0.5-20.8-10.6-32.1-11.3-1.1-5.6 0-9.5-3.6-13.2-2.7-2.8-8.8-2.8-11.8-6.4-2.5-3.1-3.8-12.1-5.4-16-1.4-3.5-5.3-14.6-8-17.2-3.7-3.6-12.3-4.7-13.6 2.4-6.5-9.7-13.9-18-25.1-12.1-5.6 3-5.6 5.9-13.6 4.6-6.4-1.1-11-4.6-17.4-1.5-0.4-7.6 1.1-11.7-5.1-16.5-3.2-2.4-8.7-5.4-11.7-7.1-12.7-7.2-8.6 2.1-17.9 8.2-3.8 2.5-8.9 1-12.5 3.7-5.4 3.9-6.4 11.8-7.2 17.9-0.9 7.7-0.7 14.1-11.2 13-0.5-8.1-0.4-15.4-1.2-23.2-0.6-5.7 5.5-19.5 2-24.9-4.1-6.1-27.7-7.1-31.2 1.2-1.2 2.8 0.4 8 0 10.9-0.6 3.9-2.5 6.9-3.3 10.8-1.2 5.8 4.3 6.9-3.6 9.5-4.6 1.5-26.6-2.3-35.3-4.3m457.8 79.1c17-2.8 14.2 23 34.5 23.6 10.7 0.4 22.9-7.7 34-7.4 6.8 0.1 10.9 4.8 19 1 6.6-3.1 9.1-9.2 17.8-11.9 11-3.4 34.3 0.9 35.8-15.3 0.3-2.6-5.4-5.4-6-8.4-1-4.8 1.2-10.5-0.2-15.2-2.1-7.5-10.3-12.2-7.3-21.8 23-4.1 48 21 72.5 16.3 5.2-12.5 14.9-21.5 26.2-27.1 7.4-3.6 12.3-1.6 16.4-10.8 3.3-7.2 2.3-21.8 4.3-29.6 7.9-32.1-4.3-71 9.3-101.2 8.7-19.2 8.7-34.8 24.4-50.1 3.5 18.5-32.9 58.8 0.6 55.2 3.7-0.4 5.3-0.6 6.3-1.2 1.4-0.9 2.5-2.1 3.3-3.5 2.4-4.2 7.6-12.1 14.2-14.3 9.7-14-12.8-14.1-2.5-26.9 12.1-2.1 20.4 6.3 31.7 5.8h167.4c0-12.8-1.6-29.7 1.8-41.5 1.4-4.8 7.9-5 9-8.6 0.8-2.6-1.9-7.5-1.3-9.2 2.4-7 1.3-12.8 8.5-17-1.5-12 12-21.9 22.9-20.8 0.6 12.4-3.2 21.2-4.4 32.5-1.2 10.8 2.3 24.1 1.2 35.4-11.2 0.6-16 9.7-25.3 9.7-1.4 15.3 19.8 12.6 23.1-0.2 9.3 4 13.1-2.3 18.9-9.2 3.8-4.3 10.9-14.5 12.6-18.8 5.1-12.9-4.1-12.4 7.6-19.2 5.2-3.1 15-3.7 20.9-6 9.2 19.1-30.5 22.4-8.9 44.1-2.8 1.6-4 1.4-7.2 1.2-0.8-7.2-0.9-4.7-6.1-7.2-6.7 10.8-4.8 9-4.8 18.1-0.1 4.1 11.1 0.2 3.6 8.5-4.2 4.7-12.2 2.4-15.4-0.9-5.1 8.5-0.4 14 8.7 12.4-3.5 5.7-13 11.5-19.4 13.4-0.9-1.7-1.7-4.1-2.2-5.9-1.9 0.6-3.7 1.7-5.3 2.8-10.9-8.6-10 15.6-9.4 22.8 7.1-1.7 16.5-11.6 22.3-16.4 4.3 8.9-10.1 45.3-16.7 52.9-7.7-4.5-5.5-15.6-13-19.7-7 6.9-10.8 21.1-21.4 9.3-12 19.2-2.7 42.9 14.9 19.5 11.6 9.4-0.3 17.1-3.1 26.7-2.2 7.6-1.5 15.8-1.4 23.7-3.8 0.4-6.7 5.2-6.7 5.2 0 0-4.3 7.5-2.6 10-14.7-5 3.4-32.3-1.5-45.5-10.7 1.9-24.5 21.2-25.1 31.9-0.7 12.1 9.9 14.8 5.5 28.6 3 0.2 5.7 2.2 8.9 2-1.8 17.1-20.9 11.4-24.3-0.5-1.4-5.2 2.2-12.6 0.2-17.4-1.8-4.3-6.5-3.1-9.3-6.5-3.4-4 0.8-10.2-6.8-10.7-8.8-0.6-9 6.5-9.9 12.1-1.2 7.5 4.1 19.1 8 24.3-8.7 3.6-17.3 6.7-13.8 18 9.4 3.9 18.6-4.7 21.5 9.4-11.8 14.7-28.4-12.6-35.5-21.4-5.3-6.6-8.9-0.1-4.5-12.5 3.5-9.8 9.7-9.9 12.2-20.2 0 0.2 1.8-12.7-0.1-18.4-3.9-11.4-6.1-4.1-11.3-7.4-7.7-5-23.8-17.4-32.9-14.9-2.5-19.3 15.8-4.4 23-4.4 9.5 0 16.2-13.1 22.6 2.1 13-5.3 3.3-16 8-24.8 3.1-5.8 11.4-7.8 15.3-13 5.7-7.4 18.4-30.8 16.1-39.9-25.2-4.1-22.9 39.8-36.5 48.7-5.1 3.3-13.7-0.8-19.6 0.1-8.2 1.3-7.6 8.7-19.5 4-3.9-8.8 0.8-20.8-3-27.3-7.3-12.5-20.1-11.5-22.7 1.6-3.2 16.1 17.1 15.4 11.3 28.5-5.4 12.2-24.4 1.3-29.9 16.5-10.4-10.7-25.7 2.6-33.5-8.7-6.6-9.6 7.1-32-9.7-34-14.4-1.7-11.6 18.4-7.6 26.7 3.2 6.5 8.2 4.4 9.9 12.6 1.3 6.2-0.2 10.6-3.2 16 10.9 4.1 20.5 9.9 30.7 14 12.6 5.1 19.1-0.8 32.1-1.8 13.3-1 20.9 8.3 34.4 6.6 0.8 5.8 6 13.6 4.7 19.5-1.7 7.1-11.7 8.4-14.5 14.6-2 4.5 3.6 6.6 2.6 10.5-3.2 11.2-22.7 22.3-17.1 32.8 6.3-2.5 23.5-10.1 23.2-16.5 11.7-0.9 11.5 19.8 27.3 8.9 4.1 8.5 9.9 29.2-3.2 31.9-0.9-3.3-4.4-6.6-4.7-10.5-5.8 0.6-13.1 7.8-7.8 13.4 3.1 3.2 11.8-1.9 15.5 0.2 11.2 6.1 5.2 12.9-4.8 15.3-9.4 2.2-22.4-3.6-30.3 5.6-7.4 8.6 2.9 18.5-17.9 15.5-0.1-1.9-0.6-4.1-0.4-5.9-1.7 1-4.3 2-6 3.2-0.8-1.5-3.2-3.6-4.3-5.1-14 8-12.7 27.2-16.6 39.9-3 9.9-14.6 17-25.9 22.9-12.7-27.2 7.8-21.9 18.7-32.3 4-3.9 4.5-13.5 4-18.8-1.6-15.2 12.6-30.3 3-45.5-12.1 8.1-7.7 45.6-20.4 39.1-2.5-1.4-10.4-12.3-11.5-13.9-3.4-4.9-7 0.3-10-1.9-2.3-1.8-4.2-10-5.3-12.3-8.8 7.7 23.4 48.5-4.3 46.1-6.5-0.5-12.6-20.5-16.9-2.9-2.6 11 16.5 18.1-6.3 25.9-0.7-2.6-5.3-7.3-5.9-9.9-4.8 3.9-15.2 18.8-9.4 25.5 4.4 5.1 14.9-0.3 19.7-1 2.5 14.3 4 21.1-10 22.8-6.2 0.8-12.4-4.6-18.9-2.1-6.2 2.5-8 13.8-13.3 15-18 4.2-12-22.6-6-29.1 5.2-5.6 16.8-2.4 10.6-16.9-3.3 1.1-7.2-0.4-10.6 1.4-7.6-12.8 9.9-11.3 15.7-18.6 1.9-2.4 7.7-24.2 3-27.8-10.6-8.1-16.8 9.8-19.1 15-3.8 8.6 1.3 16.4-13.3 15.8-3.1-5.7-1.9-11.9 2.8-16-19.3-5-18.8 9.6-24.3 19.4-3.3 6-12.8 3.9-10.8 13.5 1.7 8.8 11.9 8.1 16.5 1 5.7 10.9-5.3 19.8-4.2 31 6.9 0.6 28.7 11.2 12 19.5-11.3 5.7-20-21.7-20-21.7l-11.1-10.4c-10.7-3.6-3.5-0.2-11.1 2.6-9.6 3.5-9.5 13.8-21.6-3.9-3.6 3.4-13.9 15.2-19 7.4-4.3-6.5 7.8-14.6 9.4-19-8.1 1.8-25.6 17.8-27-1.9 7.9-2.6 15.6-6.8 11.5-16.5-19.8-2.3-10.8 27.1-26.5 21.5 0.6 2.5-0.8 6.2-0.3 8.8-2.1-0.4-5.1 0.6-7.2 0.2-0.4 3.4 3.5 8.6-2.2 10.8-0.4-6.4-4.6-15.1-4.3-22.7-3-0.8-9.5 0.9-11.7-0.3l-11.5-4.2c0 0-20.3-8.2-20.5 7.1 10.7 1.5 33-3.4 35.1 10.8 6.8-0.8 8.8 2.2 5.8 8.8-3.6 8.1-11.5 4.6-18.4 2.7-1.5-0.4-36.5-14-24.7 1.9 8.2 11 38.3-7.5 37 14-0.7 11.7-16.7 11.4-11.2 25.6-13.4 6.7-17.3-5.7-16.5-17.2-12.4-5.2-8.7 10.9-9 18.8-7.1 1.2-22.2-20.6-18.5 2.8-14.2 3.8-8.3-8.7-8.7-14.1-0.4-4.1 2.6-20.4-9.3-9.6-1.1-1.8-5.1-5-5.8-6.2-2.1 8.8 6.8 18.8-2.6 25.7-9.4 7-7.2-0.2-11-4.8-0.7-0.9 1.9-6.9 0.9-9-1.1-2.6-5.8-0.2-6.4-1.4-6.3-12.8-8.9-19.9-7.3-34.7 0.7-7.1 5.4-18.5-5.8-21.6m120.8 41.5c0 5-1.8 19.1 6.1 17.2 4.1-1.1 5.3-5.9 9.9-4 2.8 1.1 4 4.6 6.9 5.9 8.2 3.8 7-4 10.3-8.5 1.4-1.8 3.4-1.6 4.5-3.4 5.3 3.1 8.4 8.2 15.4 8.5 8.2 0.4 14.7-1.7 12-10.9-3.8 1.7-6.1 2.9-8.1-1.1-1.6-3.3 1.3-6.2 0.1-9-2.5-5.5-9.8 3-12.9 4-4.3 1.6-8.5 0.4-12.5 3.4-3.8-3.9-2.6-9.3-6.8-12.3-2.6-1.8-3.8-2.5-5.8-5-1.5-2-2.7-4.3-5.7-3.7-7 1.3 1.3 15.7-9.8 14.9 0 1.2-0.6 2.3-0.5 3.5-0.9-0.2-2.2 0.3-3.1 0.1 0 0.2-0.1 1.5 0 0.4z"/><text style="transform:matrix(1,0,0,1,1433,1034.173)" ><tspan x="0" y="31.6" class="h" dx="0 0 0 0 0 0 0 0 0 0 0 0 0 0 0 0 0 0 0 0 0 0 0 0" >Provincia de San Felipe,</tspan><tspan  y="31.6" class="i" dx="0" >
</tspan><tspan x="77.4" y="79.6" class="i" dx="0 0 0 0 0 0 0 0 0 0 0 0 0 0 0 0 0 0 0 0 0" >Región de Valparaíso
</tspan></text><text style="transform:matrix(1,0,0,1,1566,612.213)" ><tspan x="0" y="31.6" class="j" dx="0 0 0 0 0 0 0 0 0 0 0 0 0 0 0 0 0 0 0 0 0 0 0" >Provincia de Melipilla,</tspan><tspan  y="31.6" class="i" dx="0" >
</tspan><tspan x="35.3" y="79.6" class="i" dx="0 0 0 0 0 0 0 0 0 0 0 0 0 0 0 0 0 0 0 0 0" >Región Metropolitana
</tspan></text><text style="transform:matrix(1,0,0,1,2079,1150.013)" ><tspan x="0" y="31.6" class="j" dx="0 0 0 0 0 0 0 0 0 0 0 0 0 0 0 0 0 0 0 0 0 0 0" >Provincia de Cachapoal,</tspan><tspan  y="31.6" class="i" dx="0" >
</tspan><tspan x="0" y="79.6" class="i" dx="0 0 0 0 0 0 0 0 0 0 0 0 0 0 0 0 0 0 0 0" >Región de O´Higgins
</tspan></text><text style="transform:matrix(1,0,0,1,2152,715.133)" ><tspan x="0" y="31.6" class="j" dx="0 0 0 0 0 0 0 0 0 0 0 0 0 0 0 0 0 0 0 0" >Provincia de Curicó,</tspan><tspan  y="31.6" class="i" dx="0" >
</tspan><tspan x="0" y="79.6" class="i" dx="0 0 0 0 0 0 0 0 0 0 0 0 0 0 0 0 0" >Región del Maule
</tspan></text><path class="k" d="m2132.1 904.2v-148.3"/><path class="l" d="m2137.8 756.2c0-3.1-2.6-5.6-5.7-5.6-3.1 0-5.6 2.5-5.6 5.6 0 3.1 2.5 5.6 5.6 5.6 3.1 0 5.7-2.5 5.7-5.6z"/><path class="k" d="m2002.5 936.1v-283.1"/><path class="l" d="m2008.1 653.3c0-3.1-2.5-5.7-5.6-5.7-3.1 0-5.6 2.6-5.6 5.7 0 3.1 2.5 5.6 5.6 5.6 3.1 0 5.6-2.5 5.6-5.6z"/><path class="k" d="m2059.5 903.9v283.1"/><path class="l" d="m2053.8 1186.7c0 3.2 2.6 5.7 5.7 5.7 3.1 0 5.6-2.5 5.6-5.7 0-3.1-2.5-5.6-5.6-5.6-3.1 0-5.7 2.5-5.7 5.6z"/><path class="k" d="m1902.7 892.7v179"/><path class="l" d="m1897.1 1071.4c0 3.1 2.5 5.6 5.6 5.6 3.1 0 5.7-2.5 5.7-5.6 0-3.1-2.6-5.7-5.7-5.7-3.1 0-5.6 2.6-5.6 5.7z"/></svg>