<svg version="1.2" xmlns="http://www.w3.org/2000/svg" viewBox="0 0 956 288" width="956" height="288"><style>.a{fill:#fff}.b{fill:#00a82d}</style><path fill-rule="evenodd" class="a" d="m382.3 225.2q0.6 1.9 0.6 3.9 0 2.3-0.8 4.2-0.9 1.9-2.3 3.3-1.5 1.3-3.3 2-1.9 0.7-4 0.7h-6.9v-21h5.9q3.1 0 5.3 0.9 2.2 1 3.5 2.6 1.4 1.5 2 3.4zm-2.6 3.7q0-2-0.6-3.4-0.7-1.5-1.7-2.4-1.1-0.9-2.4-1.4-1.3-0.4-2.7-0.4h-3.6v15h3.2q1.7 0 3.1-0.5 1.5-0.4 2.5-1.4 1.1-1 1.7-2.4 0.5-1.3 0.5-3.1zm10.4 7.4h11.1v3h-14.2v-21h13.8v3h-10.7v6h9.5v2.9h-9.5zm25.2-5.3l5.2 8.3h-3.6l-4.9-7.5c-0.2 0-0.3 0-0.5 0h-3v7.5h-3.1v-21h5.7q1.7 0 3.1 0.4 1.4 0.5 2.4 1.3 1 0.9 1.5 2.1 0.6 1.2 0.6 2.9 0 1.2-0.4 2.4-0.3 1.2-1.2 2.2-0.7 0.9-1.8 1.4zm-0.6-3.5q0.4-0.5 0.6-1.2 0.2-0.6 0.2-1.3 0-0.5-0.2-1.2-0.2-0.6-0.6-1.2-0.5-0.6-1.2-0.9-0.8-0.4-1.9-0.4h-3.1v7.5h3q1.2 0 2-0.3 0.7-0.4 1.2-1zm12.4 8.8h11.2v3h-14.3v-21h13.9v3h-10.8v6h9.6v3h-9.6zm29.5-1.4l1.3 2.8q-0.4 0.3-1.3 0.7-0.9 0.5-2.2 0.8-1.2 0.3-2.7 0.3-2.4 0-4.4-0.9-2-0.8-3.3-2.3-1.4-1.5-2.1-3.4-0.8-1.9-0.8-4 0-2.4 0.8-4.4 0.7-1.9 2.1-3.4 1.5-1.5 3.4-2.3 1.9-0.8 4.1-0.8 2 0 3.5 0.5 1.6 0.5 2.7 1.2l-1.3 2.9q-0.8-0.6-2-1.1-1.3-0.5-2.8-0.5-1.5 0-2.8 0.6-1.3 0.6-2.3 1.6-1 1.1-1.6 2.5-0.5 1.4-0.5 3 0 1.7 0.5 3.1 0.5 1.4 1.5 2.5 0.9 1 2.3 1.6 1.4 0.6 3.1 0.6 1.6 0 2.8-0.5 1.3-0.5 2-1.1zm19.2-16.7h3.1v21h-3.1v-9h-10.7v9h-3.1v-21h3.1v9h10.7zm27.7 6.5q0.9 1.9 0.9 4.1 0 2.2-0.9 4.1-0.8 2-2.3 3.5-1.5 1.4-3.4 2.3-2 0.8-4.2 0.8-2.2 0-4.2-0.8-1.9-0.8-3.4-2.3-1.5-1.5-2.3-3.4-0.8-2-0.8-4.2 0-2.2 0.8-4.1 0.8-2 2.3-3.5 1.5-1.5 3.4-2.4 2-0.8 4.2-0.8 2.2 0 4.2 0.8 1.9 0.9 3.4 2.4 1.5 1.5 2.3 3.5zm-2.3 4.1q0-1.6-0.6-3.1-0.6-1.4-1.6-2.4-1-1.1-2.4-1.7-1.4-0.6-3-0.6-1.6 0-2.9 0.6-1.4 0.6-2.5 1.7-1 1-1.6 2.5-0.5 1.4-0.5 3 0 1.6 0.6 3 0.6 1.4 1.6 2.5 1.1 1 2.4 1.6 1.4 0.6 3 0.6 1.6 0 2.9-0.6 1.4-0.6 2.4-1.6 1-1.1 1.6-2.5 0.6-1.4 0.6-3zm19.1 2.2q0.4 1 0.4 2.5 0 1.7-0.8 3-0.8 1.4-2.4 2.2-1.6 0.8-3.8 0.8-1.3 0-2.5-0.3-1.3-0.3-2.4-0.8-1.1-0.5-2-1.1l1.4-2.4q0.6 0.5 1.5 0.9 0.9 0.5 1.9 0.7 1 0.3 1.9 0.3 0.9 0 1.8-0.4 1-0.3 1.6-1 0.6-0.7 0.6-1.9 0-1-0.6-1.6-0.5-0.7-1.4-1.2-0.9-0.5-1.9-0.9-1-0.4-2-0.8-1-0.5-1.9-1.1-0.8-0.7-1.4-1.7-0.5-0.9-0.5-2.3 0-1.7 0.8-3 0.8-1.3 2.2-2 1.4-0.7 3.3-0.8 2.1 0 3.7 0.5 1.5 0.6 2.8 1.3l-1.2 2.4q-1.1-0.6-2.4-1-1.3-0.4-2.5-0.4-1.6 0-2.5 0.7-1 0.7-1 2 0 0.9 0.6 1.6 0.7 0.6 1.7 1.1 1 0.5 2.1 1 1 0.3 1.9 0.8 1 0.5 1.7 1.2 0.8 0.7 1.3 1.7zm16.1 5.3h10.6v3h-13.7v-21.1h3.1zm21.8-18.9l9.2 21.9h-3.5l-2.1-5.2h-7.9l-2.1 5.2h-3l9.2-21.9zm2.6 14l-2.8-7.1-2.9 7.1zm22.2-1.1q1.1 1.3 1.1 3 0 1.6-0.6 2.8-0.6 1.1-1.6 1.8-1 0.7-2.3 1.1-1.2 0.3-2.6 0.3h-6.4v-21h5.6q3.2 0 5 1.3 1.8 1.3 1.8 4 0 1.7-0.8 3-0.7 1.1-2 1.8 0 0 0 0 1.8 0.7 2.8 1.9zm-9.3-2.9h3q1.7 0 2.4-1 0.8-0.9 0.8-2.2 0-1.5-1-2.2-1-0.7-2.6-0.7h-2.6zm7.2 6q0-1.2-0.7-1.9-0.6-0.6-1.5-0.9-1-0.3-2.1-0.3h-2.9v6.1h3.1q1.2 0 2.1-0.3 0.9-0.3 1.4-1 0.6-0.7 0.6-1.7zm26.5-8.7q0.9 1.9 0.9 4.1 0 2.2-0.9 4.2-0.8 1.9-2.3 3.4-1.5 1.5-3.4 2.3-2 0.8-4.2 0.8-2.2 0-4.2-0.8-1.9-0.8-3.4-2.3-1.5-1.4-2.3-3.4-0.8-1.9-0.8-4.2 0-2.2 0.8-4.1 0.8-1.9 2.3-3.5 1.5-1.5 3.4-2.3 2-0.9 4.2-0.9 2.2 0 4.1 0.9 2 0.8 3.5 2.3 1.5 1.6 2.3 3.5zm-2.3 4.1q0-1.6-0.6-3-0.6-1.4-1.6-2.5-1.1-1.1-2.4-1.7-1.4-0.6-3-0.6-1.6 0-3 0.6-1.3 0.6-2.4 1.7-1 1.1-1.6 2.5-0.5 1.4-0.5 3 0 1.6 0.6 3 0.6 1.4 1.6 2.5 1 1.1 2.4 1.7 1.4 0.5 3 0.5 1.6 0 2.9-0.5 1.4-0.6 2.4-1.7 1-1.1 1.6-2.5 0.6-1.4 0.6-3zm17.1 2.2l5.2 8.3h-3.6l-4.8-7.6c-0.2 0-0.3 0.1-0.5 0.1h-3.1v7.5h-3.1v-21h5.8q1.6 0 3 0.4 1.4 0.5 2.4 1.3 1 0.8 1.6 2.1 0.6 1.2 0.6 2.8 0 1.3-0.4 2.5-0.4 1.2-1.2 2.2-0.8 0.8-1.9 1.4zm-0.5-3.5q0.4-0.6 0.6-1.2 0.2-0.7 0.2-1.3 0-0.6-0.2-1.2-0.2-0.6-0.6-1.2-0.5-0.6-1.3-1-0.7-0.4-1.8-0.4h-3.2v7.6h3q1.2 0 2-0.4 0.8-0.3 1.3-0.9zm16.6-10.1l9.2 21.9h-3.5l-2.1-5.2h-7.9l-2.1 5.2h-3l9.2-21.9zm2.6 14l-2.8-7.1-2.9 7.1zm12.9 4.9h10.5v3h-13.6v-21h3.1zm17.5 0h11.2v2.9h-14.3v-21h13.9v3h-10.8v6h9.6v3h-9.6zm27.2-5.3q0.4 1 0.4 2.5 0 1.7-0.8 3-0.8 1.4-2.4 2.2-1.5 0.8-3.7 0.8-1.4 0-2.6-0.3-1.3-0.3-2.4-0.8-1.1-0.5-2-1.1l1.4-2.4q0.7 0.4 1.6 0.9 0.9 0.4 1.8 0.7 1 0.3 1.9 0.3 0.9 0 1.9-0.4 0.9-0.3 1.5-1 0.6-0.7 0.6-1.9 0-1-0.5-1.6-0.6-0.7-1.4-1.2-0.9-0.5-1.9-0.9-1-0.4-2-0.8-1.1-0.5-1.9-1.1-0.9-0.7-1.4-1.7-0.6-0.9-0.6-2.4 0-1.6 0.8-2.9 0.8-1.3 2.3-2 1.4-0.7 3.2-0.8 2.1 0 3.7 0.5 1.6 0.5 2.8 1.3l-1.2 2.4q-1.1-0.6-2.4-1-1.3-0.4-2.4-0.4-1.7 0-2.6 0.7-1 0.7-1 2 0 0.9 0.7 1.6 0.6 0.6 1.6 1.1 1 0.5 2.2 1 0.9 0.3 1.9 0.8 0.9 0.5 1.7 1.2 0.7 0.7 1.2 1.7zm34.1-13.5v21.8h-3v-12.9l-7.6 10.7h-0.1l-7.4-10.3v12.5h-2.9v-21.8l10.4 14.8zm5.4 0.7h3.1v21h-3.1zm17.8 10.6h7.2v8.6q-0.4 0.4-1.2 0.8-0.8 0.3-1.7 0.6-1 0.3-2 0.5-1 0.2-1.9 0.2-2.6 0-4.6-0.8-2-0.8-3.5-2.2-1.4-1.4-2.2-3.2-0.8-1.9-0.8-4.1 0-2.7 0.9-4.8 0.9-2.1 2.4-3.5 1.5-1.4 3.4-2.2 2-0.7 4.1-0.7 1.9 0 3.5 0.4 1.6 0.5 2.8 1.2l-1 2.8q-0.6-0.3-1.5-0.6-0.8-0.3-1.7-0.5-0.9-0.2-1.7-0.2-1.8 0-3.3 0.6-1.5 0.5-2.5 1.5-1.1 1-1.6 2.5-0.6 1.4-0.6 3.2 0 1.7 0.6 3.1 0.6 1.3 1.6 2.3 1.1 1 2.5 1.6 1.5 0.5 3.2 0.5 1 0 2-0.2 1-0.2 1.7-0.6v-3.8h-4.1zm21.8 2.1l5.2 8.3h-3.6l-4.8-7.5c-0.2 0-0.4 0-0.5 0h-3.1v7.5h-3.1v-21h5.8q1.6 0 3 0.5 1.4 0.4 2.4 1.2 1 0.9 1.6 2.1 0.6 1.2 0.6 2.9 0 1.2-0.4 2.4-0.4 1.2-1.2 2.2-0.8 0.9-1.9 1.4zm-0.6-3.5q0.5-0.5 0.7-1.2 0.2-0.6 0.2-1.2 0-0.6-0.2-1.3-0.2-0.6-0.7-1.2-0.4-0.6-1.2-0.9-0.7-0.4-1.8-0.4h-3.2v7.6h3q1.2 0 2-0.4 0.8-0.4 1.2-1zm16.7-10l9.2 21.8h-3.5l-2.1-5.2h-7.9l-2.1 5.2h-3.1l9.3-21.8zm2.6 14l-2.8-7.2-3 7.2zm25.2-13.2h3.1v21.8h-0.1l-15.3-15.2 0.1 14.4h-3.1v-21.7h0.1l15.3 15.4zm6.9 0h14v3h-5.5v18.1h-3.1v-18.1h-5.4zm20.9 18.1h11.1v2.9h-14.2v-21h13.8v3h-10.7v6h9.5v3h-9.5zm27.6-2.8q0 1.7-0.8 3-0.9 1.4-2.4 2.2-1.6 0.8-3.8 0.8-1.3 0-2.6-0.3-1.2-0.3-2.3-0.8-1.2-0.5-2.1-1.1l1.4-2.5q0.7 0.5 1.6 1 0.9 0.4 1.9 0.7 1 0.3 1.8 0.3 1 0 1.9-0.4 1-0.3 1.6-1 0.6-0.7 0.6-1.9 0-1-0.6-1.6-0.5-0.7-1.4-1.2-0.9-0.5-1.9-0.9-1-0.4-2-0.8-1-0.5-1.9-1.1-0.8-0.7-1.4-1.7-0.5-0.9-0.5-2.4 0-1.6 0.8-2.9 0.8-1.3 2.2-2 1.4-0.7 3.3-0.8 2.1 0 3.7 0.5 1.5 0.5 2.7 1.3l-1.1 2.3q-1.1-0.5-2.4-0.9-1.3-0.4-2.5-0.4-1.6 0-2.6 0.7-0.9 0.7-0.9 2 0 0.9 0.6 1.6 0.7 0.6 1.7 1.1 1 0.5 2.1 1 1 0.3 1.9 0.8 1 0.5 1.7 1.2 0.8 0.7 1.2 1.7 0.5 1 0.5 2.5zm-514.1-141.4q5.3 8.9 5.3 21.1 0 7.2-2.2 14.5-2.1 7.3-6.9 13.3-4.7 5.9-12.7 9.5-7.9 3.6-19.5 3.6h-16.7v37.4h-23.2v-118.1h35.8q14.6 0 24.7 4.9 10.1 4.9 15.4 13.8zm-18 21.7q0-1.7-0.5-4.7-0.6-3-2.4-6-1.7-3.1-5.3-5.2-3.7-2-9.8-2h-16.7v35.6h16.6q5.3 0 8.8-1.9 3.5-1.8 5.5-4.6 2-2.8 2.9-5.9 0.9-3 0.9-5.3zm64.2 55.2h59.6v22.5h-82.9v-118.1h80.6v22.5h-57.3v25.2h50.7v22.4h-50.7z"/><path fill-rule="evenodd" class="a" d="m552.7 148.6l27.5 43h-27.1l-25-37.6h-15.5v37.6h-23.2v-118.2h35.8q11 0 19.7 2.9 8.7 2.8 14.5 8 5.9 5.2 8.9 12.5 3.1 7.3 3.1 16.5 0 7.2-2.2 14.4-2.2 7.2-7 13.2-3.8 4.5-9.5 7.7zm-40.1-17.1h16.6q5.3 0 8.8-1.7 3.5-1.8 5.5-4.5 2-2.7 2.9-5.7 0.9-3 0.9-5.5 0-2-0.6-4.9-0.5-3-2.3-6.1-1.8-3-5.4-5.1-3.6-2.1-9.7-2.1h-16.7zm83.7-58.1h23.2v118.1h-23.2zm126.4 18.7q5.3 9 5.3 21.2 0 7.2-2.1 14.5-2.2 7.3-6.9 13.2-4.8 6-12.7 9.6-8 3.6-19.5 3.6h-16.7v37.4h-23.3v-118.2h35.8q14.6 0 24.7 4.9 10.1 4.9 15.4 13.8zm-18 21.8q0-1.8-0.5-4.7-0.6-3-2.3-6.1-1.8-3-5.4-5.1-3.6-2.1-9.7-2.1h-16.7v35.6h16.5q5.3 0 8.8-1.8 3.6-1.8 5.6-4.7 2-2.8 2.9-5.8 0.8-3.1 0.8-5.3zm64.2 55.2h55.6v22.5h-78.8v-118.2h23.2zm186.7-36.4q0 12.5-4.7 23.4-4.8 11-13.2 19.2-8.4 8.3-19.3 12.9-10.9 4.7-23.3 4.7-12.5 0-23.4-4.7-11-4.6-19.2-12.9-8.3-8.2-12.9-19.2-4.7-10.9-4.7-23.4 0-12.2 4.7-23.1 4.6-10.9 12.9-19.3 8.2-8.5 19.2-13.3 10.9-4.8 23.4-4.8 12.4 0 23.3 4.8 10.9 4.8 19.3 13.3 8.4 8.4 13.2 19.3 4.7 10.9 4.7 23.1zm-24.1 0q0-8-2.8-14.9-2.8-6.9-7.7-12.1-4.9-5.2-11.5-8.1-6.5-2.9-14.2-2.9-7.7 0-14.3 2.9-6.6 2.9-11.6 8.1-5 5.2-7.7 12.1-2.7 6.9-2.7 14.9 0 7.9 2.8 14.7 2.8 6.8 7.9 12 5 5.3 11.7 8.1 6.6 2.9 14.5 2.9 7.5 0 14-2.9 6.5-2.8 11.4-8.1 4.8-5.2 7.5-12 2.7-6.8 2.7-14.7z"/><path class="b" d="m141.8 164.7c-2-0.9-13.1-6-21-9.7 8.6-9.3 14.2-19.7 14.2-32l-0.1-63.9h-25.4-28.4c0-18.2 14.8-33.1 33.1-33.1 17.7 0 32.2 15.6 33 33.1l0.1 0.1v76.8c0 8.2 4.9 15.7 12.4 18.9l13.1 5.7v-77.7h44.5c0-13.1-10.6-23.8-23.8-23.8h-20.7c0-32.3-26.3-58.6-58.6-58.6-32.3 0-58.6 26.3-58.6 58.6h-46.9v1.7c0 12.2 9.9 22.1 22 22.1h24.9v29.7c0 14.1 11.4 25.5 25.5 25.5v-35.7h4.7c6.2 0 11.2-5 11.2-11.1h-15.9v-8.4h28.4v40.1c0 14-22.8 28.5-44.8 42.5-30.2 19.2-64.4 41-64.4 75.7v45.9h25.4v-45.9c0-20.8 26.8-37.8 52.6-54.2 7.2-4.6 14.4-9.2 21.2-14 6.5 3.1 15.7 7.4 22.7 10.7-18 8.8-60.8 32.3-60.8 57.5v45.9h25.5v-40.8c0-19.1 45.2-41.1 62.8-49.5 7.5 3.7 14.6 7.4 21.2 11.1-20.2 11.4-47.4 30.4-47.4 50.5v28.7h25.5v-23.6c0-13.9 24-29.4 43.8-40 5.7 5.7 9.1 11.5 9.1 17.7v45.9h25.5v-45.9c0-35.8-43.5-56.5-85.6-76.5z"/></svg>